<?xml version="1.0" encoding="UTF-8"?>
<svg xmlns="http://www.w3.org/2000/svg" xmlns:xlink="http://www.w3.org/1999/xlink" width="75pt" height="74.999997pt" viewBox="0 0 75 74.999997" version="1.2">
<defs>
<clipPath id="clip1">
  <path d="M 0.523438 0.570312 L 74.773438 0.570312 L 74.773438 73.722656 L 0.523438 73.722656 Z M 0.523438 0.570312 "/>
</clipPath>
</defs>
<g id="surface1">
<g clip-path="url(#clip1)" clip-rule="nonzero">
<path style=" stroke:none;fill-rule:nonzero;fill:rgb(87.838745%,35.688782%,28.62854%);fill-opacity:1;" d="M 75.042969 37.148438 C 75.042969 57.351562 58.371094 73.730469 37.804688 73.730469 C 27.929688 73.730469 18.460938 69.875 11.476562 63.015625 C 4.496094 56.15625 0.570312 46.851562 0.570312 37.148438 C 0.570312 16.949219 17.242188 0.570312 37.804688 0.570312 C 58.371094 0.570312 75.042969 16.949219 75.042969 37.148438 Z M 75.042969 37.148438 "/>
</g>
<path style=" stroke:none;fill-rule:nonzero;fill:rgb(100%,100%,100%);fill-opacity:1;" d="M 27.203125 37.394531 L 27.203125 35.75 L 33.148438 33 L 33.148438 34.765625 L 29.222656 36.542969 L 33.148438 38.371094 L 33.148438 40.148438 Z M 27.203125 37.394531 "/>
<path style=" stroke:none;fill-rule:nonzero;fill:rgb(100%,100%,100%);fill-opacity:1;" d="M 39.503906 31.640625 L 41.242188 31.640625 L 36.105469 42.65625 L 34.382812 42.65625 Z M 39.503906 31.640625 "/>
<path style=" stroke:none;fill-rule:nonzero;fill:rgb(100%,100%,100%);fill-opacity:1;" d="M 48.410156 35.75 L 48.410156 37.394531 L 42.464844 40.148438 L 42.464844 38.367188 L 46.390625 36.542969 L 42.464844 34.765625 L 42.464844 33 Z M 48.410156 35.75 "/>
<path style=" stroke:none;fill-rule:nonzero;fill:rgb(15.289307%,63.529968%,85.879517%);fill-opacity:1;" d="M 55.203125 42.558594 C 55.753906 40.851562 56.050781 39.035156 56.050781 37.148438 C 56.050781 35.265625 55.753906 33.449219 55.203125 31.742188 L 57.109375 29.960938 C 57.527344 29.570312 57.621094 28.949219 57.332031 28.457031 L 55.230469 24.882812 C 54.941406 24.390625 54.347656 24.160156 53.792969 24.320312 L 51.269531 25.054688 C 48.777344 22.378906 45.472656 20.453125 41.738281 19.644531 L 41.125 17.132812 C 40.988281 16.582031 40.484375 16.191406 39.90625 16.191406 L 35.707031 16.191406 C 35.128906 16.191406 34.625 16.582031 34.488281 17.132812 L 33.875 19.644531 C 30.140625 20.453125 26.835938 22.378906 24.34375 25.054688 L 21.820312 24.320312 C 21.265625 24.160156 20.671875 24.390625 20.382812 24.882812 L 18.28125 28.457031 C 17.992188 28.949219 18.085938 29.570312 18.503906 29.964844 L 20.40625 31.742188 C 19.859375 33.449219 19.558594 35.265625 19.558594 37.148438 C 19.558594 39.035156 19.859375 40.851562 20.40625 42.558594 L 18.503906 44.335938 C 18.085938 44.726562 17.992188 45.347656 18.28125 45.839844 L 20.382812 49.414062 C 20.671875 49.90625 21.265625 50.140625 21.820312 49.980469 L 24.34375 49.246094 C 26.835938 51.921875 30.140625 53.847656 33.875 54.652344 L 34.488281 57.164062 C 34.625 57.71875 35.128906 58.105469 35.707031 58.105469 L 39.90625 58.105469 C 40.484375 58.105469 40.988281 57.71875 41.125 57.164062 L 41.738281 54.652344 C 45.472656 53.847656 48.777344 51.921875 51.269531 49.246094 L 53.792969 49.980469 C 54.347656 50.140625 54.941406 49.90625 55.230469 49.414062 L 57.332031 45.839844 C 57.621094 45.347656 57.527344 44.726562 57.109375 44.335938 Z M 37.804688 51.355469 C 29.820312 51.355469 23.347656 44.996094 23.347656 37.148438 C 23.347656 29.304688 29.820312 22.945312 37.804688 22.945312 C 45.792969 22.945312 52.265625 29.304688 52.265625 37.148438 C 52.265625 44.996094 45.792969 51.355469 37.804688 51.355469 Z M 37.804688 51.355469 "/>
<path style=" stroke:none;fill-rule:nonzero;fill:rgb(17.649841%,57.649231%,72.938538%);fill-opacity:1;" d="M 37.804688 22.945312 C 29.820312 22.945312 23.347656 29.304688 23.347656 37.148438 C 23.347656 44.996094 29.820312 51.355469 37.804688 51.355469 C 45.792969 51.355469 52.265625 44.996094 52.265625 37.148438 C 52.265625 29.304688 45.792969 22.945312 37.804688 22.945312 Z M 37.804688 49.785156 C 30.703125 49.785156 24.945312 44.128906 24.945312 37.148438 C 24.945312 30.171875 30.703125 24.515625 37.804688 24.515625 C 44.910156 24.515625 50.667969 30.171875 50.667969 37.148438 C 50.667969 44.128906 44.910156 49.785156 37.804688 49.785156 Z M 37.804688 49.785156 "/>
</g>
</svg>
